<svg width="81" height="15" viewBox="0 0 81 15" fill="none" xmlns="http://www.w3.org/2000/svg">
<path d="M7.71169 2.40189L8.16715 2.12656C8.23381 1.7925 8.10051 1.6273 7.77835 1.6273C7.31179 1.6273 7.0785 1.98339 7.0785 2.69191C7.0785 2.97091 7.11553 3.29396 7.19329 3.66107C8.01904 4.20805 8.43006 4.9129 8.43006 5.76825C8.43006 6.62361 8.13013 7.28807 7.53396 7.76164C6.93779 8.2352 6.12685 8.47015 5.10855 8.47015C4.68642 8.47015 4.24578 8.4261 3.79032 8.34166C3.31265 8.64269 3.07567 8.8703 3.07567 9.02081C3.07567 9.17132 3.42374 9.24841 4.11618 9.24841H5.77878C8.24121 9.24841 9.47428 10.1258 9.47428 11.8806C9.47428 12.8277 9.10398 13.5766 8.3597 14.1309C7.61542 14.6853 6.45642 14.9606 4.88268 14.9606C2.20178 14.9606 0.861328 14.3842 0.861328 13.2352C0.861328 12.6111 1.27976 12.1816 2.11662 11.943L3.09418 12.3798C3.00531 12.6919 2.96458 12.9892 2.96458 13.2682C2.96458 14.1933 3.66072 14.6559 5.04931 14.6559C5.89727 14.6559 6.54898 14.498 7.00444 14.186C7.45989 13.8739 7.68948 13.4848 7.68948 13.0223C7.68948 12.5597 7.55247 12.2513 7.27475 12.0935C6.99704 11.9356 6.44531 11.8585 5.62326 11.8585H4.04582C3.16824 11.8585 2.53874 11.7117 2.15734 11.4217C1.77594 11.1317 1.5871 10.7719 1.5871 10.3497C1.5871 9.92389 1.7241 9.56779 1.99441 9.28512C2.26473 8.99878 2.74981 8.64636 3.44225 8.22786C2.18326 7.87177 1.55377 7.05679 1.55377 5.77559C1.55377 4.96796 1.84631 4.31819 2.43137 3.82259C3.01642 3.327 3.89771 3.08104 5.06783 3.08104C5.77138 3.08104 6.37495 3.21687 6.87484 3.48486C6.80819 3.19484 6.77857 2.93052 6.77857 2.69558C6.77857 2.09352 6.9415 1.65667 7.26735 1.38868C7.59321 1.12069 7.95608 0.984863 8.3597 0.984863C8.76332 0.984863 9.08547 1.09132 9.32986 1.30057C9.57425 1.50982 9.69645 1.79984 9.69645 2.16327C9.69645 2.53038 9.60017 2.80204 9.40392 2.97825C9.20767 3.15446 8.97068 3.24624 8.69666 3.24624C8.41895 3.24624 8.19307 3.17282 8.01163 3.02964C7.81908 2.87913 7.7228 2.67355 7.71169 2.40189ZM4.2606 5.42317V6.29321C4.2606 7.01274 4.32354 7.50466 4.44944 7.76164C4.57534 8.01861 4.76419 8.1471 5.01969 8.1471C5.27519 8.1471 5.46033 8.02228 5.57142 7.76898C5.68621 7.51568 5.74176 6.99806 5.74176 6.21245V5.42317C5.74176 4.5825 5.68621 4.03184 5.57883 3.76752C5.47145 3.50321 5.29 3.37105 5.0345 3.37105C4.779 3.37105 4.58645 3.50688 4.45685 3.78221C4.32355 4.05754 4.2606 4.60453 4.2606 5.42317Z" fill="white"/>
<path d="M16.7462 3.69388C16.3426 3.69388 15.9908 3.95086 15.6872 4.46848C15.3835 4.9861 15.2317 5.59917 15.2317 6.30768V10.6322H16.387V10.9222H11.3066V10.6322H12.2027V3.52869H11.3066V3.23868H15.2317V4.78786C15.3724 4.24087 15.6427 3.8187 16.0464 3.52134C16.4463 3.22399 16.9054 3.07715 17.4127 3.07715C17.9237 3.07715 18.3385 3.22032 18.6569 3.50666C18.9754 3.79301 19.1383 4.19682 19.1383 4.71811C19.1383 5.23941 19.0198 5.63955 18.7791 5.92222C18.5384 6.20122 18.1755 6.34072 17.6793 6.34072C17.1832 6.34072 16.8203 6.1792 16.587 5.85614C16.3537 5.53309 16.3241 5.08522 16.4981 4.51621H17.0832C17.3609 3.96922 17.2461 3.69388 16.7462 3.69388Z" fill="white"/>
<path d="M22.046 10.0154C21.3461 9.29954 20.998 8.30469 20.998 7.03084C20.998 5.75699 21.3906 4.78049 22.1793 4.10135C22.9643 3.42221 23.9678 3.08447 25.1823 3.08447C27.6448 3.08447 28.8297 4.3106 28.7334 6.76286H24.1418V7.39427C24.1418 8.44786 24.2788 9.24448 24.5491 9.78412C24.8194 10.3238 25.2934 10.5918 25.9673 10.5918C27.2263 10.5918 28.0521 9.92362 28.4409 8.59103L28.7334 8.63876C28.5261 9.41335 28.1558 10.0154 27.6188 10.4449C27.0819 10.8744 26.2747 11.091 25.2008 11.091C23.7974 11.0873 22.7458 10.7276 22.046 10.0154ZM24.1566 6.4398H25.834V5.65053C25.834 4.78049 25.7822 4.18579 25.6785 3.86641C25.5748 3.5507 25.3675 3.38917 25.0601 3.38917C24.7491 3.38917 24.5232 3.55804 24.3751 3.89577C24.227 4.23351 24.1566 4.81721 24.1566 5.64686V6.4398Z" fill="white"/>
<path d="M32.077 10.0154C31.3772 9.29954 31.0254 8.30469 31.0254 7.03084C31.0254 5.75699 31.4179 4.78049 32.2066 4.10135C32.9916 3.42221 33.9951 3.08447 35.2097 3.08447C37.6721 3.08447 38.8571 4.3106 38.7571 6.76286H34.1655V7.39427C34.1655 8.44786 34.3025 9.24448 34.5728 9.78412C34.8431 10.3238 35.3171 10.5918 35.9873 10.5918C37.2463 10.5918 38.072 9.92362 38.4608 8.59103L38.7534 8.63876C38.546 9.41335 38.1757 10.0154 37.6388 10.4449C37.1019 10.8744 36.2946 11.091 35.2208 11.091C33.8248 11.0873 32.7769 10.7276 32.077 10.0154ZM34.184 6.4398H35.8614V5.65053C35.8614 4.78049 35.8096 4.18579 35.7059 3.86641C35.6022 3.5507 35.3948 3.38917 35.0875 3.38917C34.7764 3.38917 34.5506 3.55804 34.4025 3.89577C34.2543 4.23351 34.184 4.81721 34.184 5.64686V6.4398Z" fill="white"/>
<path d="M41.0049 3.24258H44.93V4.72567C45.104 4.23008 45.3706 3.83361 45.7261 3.53259C46.0853 3.23156 46.6259 3.08105 47.3554 3.08105C49.0365 3.08105 49.8808 3.98045 49.8808 5.77558V10.6323H50.7917V10.9224H46.1853V10.6323H46.8518V5.38645C46.8518 4.74035 46.8074 4.32553 46.7222 4.13464C46.637 3.94741 46.4778 3.85197 46.2519 3.85197C45.9038 3.85197 45.5965 4.07957 45.3336 4.53111C45.067 4.98264 44.9337 5.5333 44.9337 6.17573V10.6323H45.6335V10.9224H41.0049V10.6323H41.901V3.52892H41.0049V3.24258Z" fill="white"/>
<path d="M53.7616 10.0154C53.0617 9.29954 52.71 8.30469 52.71 7.03084C52.71 5.75699 53.1025 4.78049 53.8912 4.10135C54.6762 3.42221 55.6797 3.08447 56.8942 3.08447C59.3567 3.08447 60.5416 4.3106 60.4453 6.76286H55.8537V7.39427C55.8537 8.44786 55.9907 9.24448 56.261 9.78412C56.5313 10.3238 57.0053 10.5918 57.6792 10.5918C58.9382 10.5918 59.764 9.92362 60.1528 8.59103L60.4453 8.63876C60.238 9.41335 59.8677 10.0154 59.3307 10.4449C58.7938 10.8744 57.9866 11.091 56.9127 11.091C55.513 11.0873 54.4614 10.7276 53.7616 10.0154ZM55.8722 6.4398H57.5497V5.65053C57.5497 4.78049 57.4978 4.18579 57.3941 3.86641C57.2904 3.5507 57.0831 3.38917 56.7757 3.38917C56.4647 3.38917 56.2388 3.55804 56.0907 3.89577C55.9426 4.23351 55.8722 4.81721 55.8722 5.64686V6.4398Z" fill="white"/>
<path d="M68.0987 3.69388C67.6988 3.69388 67.3434 3.95086 67.0397 4.46848C66.7361 4.9861 66.5842 5.59917 66.5842 6.30768V10.6322H67.7396V10.9222H62.6592V10.6322H63.5553V3.52869H62.6592V3.23868H66.5842V4.78786C66.725 4.24087 66.9953 3.8187 67.3989 3.52134C67.7988 3.22399 68.258 3.07715 68.7653 3.07715C69.2763 3.07715 69.691 3.22032 70.0094 3.50666C70.3279 3.79301 70.4908 4.19682 70.4908 4.71811C70.4908 5.23941 70.3723 5.63955 70.1316 5.92222C69.8947 6.20122 69.5281 6.34072 69.0319 6.34072C68.5394 6.34072 68.1728 6.1792 67.9395 5.85614C67.7062 5.53309 67.6766 5.08522 67.8507 4.51621H68.4357C68.7097 3.96922 68.5949 3.69388 68.0987 3.69388Z" fill="white"/>
<path d="M72.0198 3.53269V3.24268H76.741V3.53269H75.8634L77.6371 8.89241L79.5256 3.53269H78.4332V3.24268H80.729V3.53269H79.9144L76.8706 12.2331C76.5114 13.2426 76.1115 13.9511 75.6672 14.3549C75.2228 14.7587 74.6785 14.9606 74.0379 14.9606C73.3973 14.9606 72.8937 14.8138 72.5234 14.5238C72.1531 14.2338 71.9717 13.863 71.9717 13.4115C71.9717 12.9599 72.0902 12.6148 72.3309 12.3799C72.5678 12.1413 72.8826 12.0238 73.2751 12.0238C74.1749 12.0238 74.6267 12.3946 74.6267 13.1361C74.6267 13.2977 74.5933 13.4922 74.5304 13.7162H73.9601C73.8713 13.9621 73.8638 14.1677 73.9268 14.3292C73.9935 14.4907 74.1379 14.5715 74.3674 14.5715C74.8118 14.5715 75.208 14.3549 75.5561 13.9181C75.9042 13.4812 76.2337 12.8167 76.5485 11.9247L76.9076 10.9225H75.4746L72.69 3.52902H72.0198V3.53269Z" fill="white"/>
</svg>
